<svg xmlns="http://www.w3.org/2000/svg" width="116" height="91" style=""><rect id="backgroundrect" width="100%" height="100%" x="0" y="0" fill="none" stroke="none"/><defs><style>.cls-2{fill:#fff;}.cls-3{fill:#ff5f00;}.cls-4{fill:#eb001b;}.cls-5{fill:#f79e1b;}</style></defs><g class="currentLayer" style=""><title>Layer 1</title><g id="Layer_2" data-name="Layer 2" class=""><g id="Layer_1-2" data-name="Layer 1"><path class="cls-2" d="M21.194710350036623,90.10915351867676 v-6 a3.56,3.56 0 0 0 -3.7600000000000002,-3.8 a3.7,3.7 0 0 0 -3.36,1.7000000000000002 a3.51,3.51 0 0 0 -3.16,-1.7000000000000002 a3.16,3.16 0 0 0 -2.8,1.42 V80.54915351867676 H6.034710350036622 v9.56 h2.1 V84.84915351867676 a2.24,2.24 0 0 1 2.34,-2.54 c1.3800000000000001,0 2.08,0.9 2.08,2.52 v5.32 h2.1 V84.84915351867676 a2.25,2.25 0 0 1 2.34,-2.54 c1.42,0 2.1,0.9 2.1,2.52 v5.32 zM52.26471035003662,80.54915351867676 H48.84471035003662 V77.64915351867675 h-2.1 v2.9 H44.84471035003662 v1.9 h1.94 V86.84915351867676 c0,2.22 0.8600000000000001,3.54 3.3200000000000003,3.54 a4.88,4.88 0 0 0 2.6,-0.7400000000000001 l-0.6000000000000001,-1.78 a3.84,3.84 0 0 1 -1.84,0.54 c-1,0 -1.3800000000000001,-0.6400000000000001 -1.3800000000000001,-1.6 V82.44915351867675 h3.4 zm17.74,-0.24000000000000002 a2.8200000000000003,2.8200000000000003 0 0 0 -2.52,1.4 V80.54915351867676 H65.42471035003662 v9.56 h2.08 V84.74915351867676 c0,-1.58 0.6800000000000002,-2.46 2,-2.46 a3.39,3.39 0 0 1 1.3,0.24000000000000002 l0.6400000000000001,-2 a4.45,4.45 0 0 0 -1.48,-0.26 zm-26.82,1 a7.15,7.15 0 0 0 -3.9,-1 c-2.42,0 -4,1.1600000000000001 -4,3.06 c0,1.56 1.1600000000000001,2.52 3.3,2.8200000000000003 l1,0.14 c1.1400000000000001,0.16000000000000003 1.6800000000000002,0.46 1.6800000000000002,1 c0,0.7400000000000001 -0.7600000000000001,1.1600000000000001 -2.18,1.1600000000000001 a5.09,5.09 0 0 1 -3.18,-1 l-1,1.62 a6.9,6.9 0 0 0 4.14,1.24 c2.7600000000000002,0 4.36,-1.3 4.36,-3.12 s-1.26,-2.56 -3.34,-2.8600000000000003 l-1,-0.14 c-0.9,-0.12000000000000001 -1.62,-0.30000000000000004 -1.62,-0.9400000000000001 s0.6800000000000002,-1.12 1.82,-1.12 a6.16,6.16 0 0 1 3,0.8200000000000001 zm55.71,-1 a2.8200000000000003,2.8200000000000003 0 0 0 -2.52,1.4 V80.54915351867676 h-2.06 v9.56 h2.08 V84.74915351867676 c0,-1.58 0.6800000000000002,-2.46 2,-2.46 a3.39,3.39 0 0 1 1.3,0.24000000000000002 l0.6400000000000001,-2 a4.45,4.45 0 0 0 -1.48,-0.26 zm-26.8,5 a4.83,4.83 0 0 0 5.1,5 a5,5 0 0 0 3.44,-1.1400000000000001 l-1,-1.6800000000000002 a4.2,4.2 0 0 1 -2.5,0.8600000000000001 a3.07,3.07 0 0 1 0,-6.12 a4.2,4.2 0 0 1 2.5,0.8600000000000001 l1,-1.6800000000000002 a5,5 0 0 0 -3.44,-1.1400000000000001 a4.83,4.83 0 0 0 -5.1,5 zm19.48,0 V80.54915351867676 h-2.08 v1.1600000000000001 a3.63,3.63 0 0 0 -3,-1.4 a5,5 0 0 0 0,10 a3.63,3.63 0 0 0 3,-1.4 v1.1600000000000001 h2.08 zm-7.74,0 a2.89,2.89 0 1 1 2.9,3.06 a2.87,2.87 0 0 1 -2.9,-3.06 zm-25.1,-5 a5,5 0 0 0 0.14,10 A5.8100000000000005,5.8100000000000005 0 0 0 62.84471035003662,89.00915351867675 l-1,-1.54 a4.55,4.55 0 0 1 -2.7800000000000002,1 a2.6500000000000004,2.6500000000000004 0 0 1 -2.8600000000000003,-2.34 h7.1 c0,-0.26 0,-0.52 0,-0.8 c0,-3 -1.86,-5 -4.54,-5 zm0,1.86 a2.37,2.37 0 0 1 2.42,2.3200000000000003 h-5 a2.46,2.46 0 0 1 2.54,-2.3200000000000003 zM110.84471035003662,85.32915351867676 V76.70915351867676 H108.84471035003662 v5 a3.63,3.63 0 0 0 -3,-1.4 a5,5 0 0 0 0,10 a3.63,3.63 0 0 0 3,-1.4 v1.1600000000000001 H110.84471035003662 zm3.47,3.39 a1,1 0 0 1 0.38000000000000006,0.07 a1,1 0 0 1 0.31000000000000005,0.2 a1,1 0 0 1 0.21000000000000002,0.30000000000000004 a0.93,0.93 0 0 1 0,0.7400000000000001 a1,1 0 0 1 -0.21000000000000002,0.30000000000000004 a1,1 0 0 1 -0.31000000000000005,0.2 a0.9400000000000001,0.9400000000000001 0 0 1 -0.38000000000000006,0.08000000000000002 a1,1 0 0 1 -0.9,-0.5800000000000001 a0.9400000000000001,0.9400000000000001 0 0 1 0,-0.7400000000000001 a1,1 0 0 1 0.21000000000000002,-0.30000000000000004 a1,1 0 0 1 0.31000000000000005,-0.2 A1,1 0 0 1 114.34471035003662,88.71915351867676 zm0,1.6900000000000002 a0.7100000000000001,0.7100000000000001 0 0 0 0.29000000000000004,-0.06000000000000001 a0.7500000000000001,0.7500000000000001 0 0 0 0.23,-0.16000000000000003 a0.7400000000000001,0.7400000000000001 0 0 0 0,-1 a0.7400000000000001,0.7400000000000001 0 0 0 -0.23,-0.16000000000000003 a0.7200000000000001,0.7200000000000001 0 0 0 -0.29000000000000004,-0.06000000000000001 a0.7500000000000001,0.7500000000000001 0 0 0 -0.29000000000000004,0.06000000000000001 a0.7300000000000001,0.7300000000000001 0 0 0 -0.24000000000000002,0.16000000000000003 a0.7400000000000001,0.7400000000000001 0 0 0 0,1 a0.7400000000000001,0.7400000000000001 0 0 0 0.24000000000000002,0.16000000000000003 A0.7400000000000001,0.7400000000000001 0 0 0 114.34471035003662,90.40915351867676 zm0.06000000000000001,-1.19 a0.4,0.4 0 0 1 0.26,0.08000000000000002 a0.25,0.25 0 0 1 0.09000000000000002,0.21000000000000002 a0.24000000000000002,0.24000000000000002 0 0 1 -0.07,0.18000000000000002 a0.35000000000000003,0.35000000000000003 0 0 1 -0.21000000000000002,0.09000000000000002 l0.29000000000000004,0.33000000000000007 h-0.23 l-0.27,-0.33000000000000007 h-0.09000000000000002 v0.33000000000000007 h-0.19000000000000003 v-0.8800000000000001 zm-0.22000000000000003,0.17 v0.24000000000000002 h0.22000000000000003 a0.21000000000000002,0.21000000000000002 0 0 0 0.12000000000000001,0 a0.1,0.1 0 0 0 0,-0.09000000000000002 a0.1,0.1 0 0 0 0,-0.09000000000000002 a0.21000000000000002,0.21000000000000002 0 0 0 -0.12000000000000001,0 zm-11,-4.06 a2.89,2.89 0 1 1 2.9,3.06 a2.87,2.87 0 0 1 -2.9,-3.06 zm-70.23,0 V80.54915351867676 H30.84471035003662 v1.1600000000000001 a3.63,3.63 0 0 0 -3,-1.4 a5,5 0 0 0 0,10 a3.63,3.63 0 0 0 3,-1.4 v1.1600000000000001 h2.08 zm-7.74,0 a2.89,2.89 0 1 1 2.9,3.06 A2.87,2.87 0 0 1 25.16471035003662,85.32915351867676 z" id="svg_1"/><g id="_Group_" data-name="&lt;Group&gt;"><rect class="cls-3" x="42.49471187591553" y="7.699153900146484" width="31.5" height="56.61000061035156" id="svg_2"/><path id="_Path_" data-name="&lt;Path&gt;" class="cls-4" d="M44.49471035003662,36.009153518676754 A35.94,35.94 0 0 1 58.24471035003663,7.699153518676759 a36,36 0 1 0 0,56.61 A35.94,35.94 0 0 1 44.49471035003662,36.009153518676754 z"/><path class="cls-5" d="M116.49471035003663,36.009153518676754 A36,36 0 0 1 58.24471035003663,64.30915351867675 a36,36 0 0 0 0,-56.61 a36,36 0 0 1 58.25,28.3 z" id="svg_3"/><path class="cls-5" d="M113.05471035003663,58.30915351867675 V57.149153518676755 h0.47000000000000003 v-0.24000000000000002 h-1.19 v0.24000000000000002 H112.84471035003662 v1.1600000000000001 zm2.31,0 v-1.4 h-0.36000000000000004 l-0.42000000000000004,1 l-0.42000000000000004,-1 H113.84471035003662 v1.4 h0.26 V57.259153518676754 l0.39000000000000007,0.91 h0.27 l0.39000000000000007,-0.91 v1.06 z" id="svg_4"/></g></g></g></g></svg>