<svg xmlns="http://www.w3.org/2000/svg" xmlns:xlink="http://www.w3.org/1999/xlink" width="352" height="96" version="1.1" style=""><rect id="backgroundrect" width="100%" height="100%" x="0" y="0" fill="none" stroke="none"/>
    <!-- Generator: Sketch 60.1 (88133) - https://sketch.com -->
    <title>mir-logo</title>
    <desc>Created with Sketch.</desc>
    <defs>
        <linearGradient x1="100%" y1="62.9043048%" x2="0%" y2="62.9043048%" id="linearGradient-1">
            <stop stop-color="#1F5CD7" offset="0%"/>
            <stop stop-color="#02AEFF" offset="100%"/>
        </linearGradient>
    </defs>
    
<g class="currentLayer" style=""><title>Layer 1</title><g id="sim" stroke="none" stroke-width="1" fill="none" fill-rule="evenodd" class="">
        <g id="mir-logo">
            <g id="Group-5">
                <path d="M32.5505663,0.016384779199999144 C35.6952917,-0.002428155389999631 45.04123709999999,-0.8441754190000008 49,12.516649300000001 C51.66666670000001,21.516649299999997 55.9145075,36.259066 61.7435225,56.74389930000001 L61.7435225,56.74389930000001 L64.1174373,56.74389930000001 C70.3685427,35.1473512 74.6627303,20.404934499999996 77,12.516649300000001 C81,-0.9833506760000006 91,0.016649323599999377 95,0.016649323599999377 L125.86096,0.01668781809999942 L125.86096,96.0164413 L94.4066344,96.0164413 L94.4066344,39.4421872 L92.2973975,39.4421872 L74.7631716,96.0164413 L51.0977882,96.0164413 L33.5635623,39.4002658 L31.454325400000002,39.4002658 L31.454325400000002,96.0164413 L0,96.0164413 L0,0.01668781809999942 zM171.028726,0.01668781809999942 L171.028726,56.6330713 L173.537996,56.6330713 L194.866787,10.0778192 C199.007082,0.8131940489999998 207.831347,0.01668781809999942 207.831347,0.01668781809999942 L207.831347,0.01668781809999942 L238.26973599999997,0.01668781809999942 L238.26973599999997,96.0166493 L206.158501,96.0166493 L206.158501,39.4002658 L203.649231,39.4002658 L182.738651,85.955518 C178.598356,95.1782217 169.35588,96.0166493 169.35588,96.0166493 L138.917491,96.0166493 L138.917491,0.01668781809999942 L171.028726,0.01668781809999942 zM349.260509,45.6365042 C344.781335,58.3294446 330.714922,67.4197682 315.141489,67.4197682 L315.141489,67.4197682 L281.466507,67.4197682 L281.466507,96.0166493 L250.930615,96.0166493 L250.930615,45.6365042 z" id="Combined-Shape" fill="#0F754E"/>
                <path d="M316.614216,0.01668781809999942 L249.329298,0.01668781809999942 C250.930615,21.389539900000003 269.336373,39.6860934 288.390129,39.6860934 L351.3823,39.6860934 C355.0174,21.922741000000002 342.503442,0.01668781809999942 316.614216,0.01668781809999942 z" id="path24" fill="url(#linearGradient-1)"/>
            </g>
        </g>
    </g></g></svg>