<svg xmlns="http://www.w3.org/2000/svg" version="1.1" width="269.8599853515625" height="98.80999755859375"><rect id="backgroundrect" width="100%" height="100%" x="0" y="0" fill="none" stroke="none"/>
<style type="text/css">
	.st0{fill:#FF8C00;}
</style>

<g class="currentLayer" style=""><title>Layer 1</title><g id="svg_1" class="selected">
	<path class="st0" d="M179.32689278166367,20.89864275157447 v46.08655488491058 c0,0.7300840377807618 -0.5475630283355716,1.2776470661163328 -1.2776470661163328,1.2776470661163328 h-9.399831986427309 c-0.7300840377807618,0 -1.2776470661163328,-0.5475630283355716 -1.2776470661163328,-1.2776470661163328 v-46.08655488491058 c0,-0.7300840377807618 0.5475630283355716,-1.2776470661163328 1.2776470661163328,-1.2776470661163328 h9.399831986427309 C178.77932975332806,19.712256190180824 179.32689278166367,20.259819218516327 179.32689278166367,20.89864275157447 zM252.70033857863018,19.712256190180824 h-10.49495804309845 c-0.5475630283355716,0 -1.0038655519485475,0.3650420188903809 -1.1863865613937379,0.9126050472259521 l-8.304705929756164,27.286890912055966 l-9.126050472259521,-27.286890912055966 c-0.1825210094451906,-0.5475630283355716 -0.6388235330581675,-0.8213445425033575 -1.1863865613937379,-0.8213445425033575 h-7.392100882530212 c-0.5475630283355716,0 -1.0038655519485475,0.3650420188903809 -1.1863865613937379,0.8213445425033575 l-9.126050472259521,27.286890912055966 l-8.304705929756164,-27.286890912055966 c-0.1825210094451906,-0.5475630283355716 -0.6388235330581675,-0.9126050472259521 -1.1863865613937379,-0.9126050472259521 h-10.49495804309845 c-0.3650420188903809,0 -0.8213445425033575,0.1825210094451906 -1.0038655519485475,0.5475630283355716 c-0.2737815141677858,0.3650420188903809 -0.2737815141677858,0.7300840377807618 -0.1825210094451906,1.0951260566711425 l15.514285802841187,46.17781538963318 c0.1825210094451906,0.5475630283355716 0.6388235330581675,0.8213445425033575 1.1863865613937379,0.8213445425033575 h8.395966434478758 c0.5475630283355716,0 1.0038655519485475,-0.3650420188903809 1.1863865613937379,-0.8213445425033575 l9.034789967536927,-26.921848893165592 l9.034789967536927,26.921848893165592 c0.1825210094451906,0.5475630283355716 0.6388235330581675,0.8213445425033575 1.1863865613937379,0.8213445425033575 h8.395966434478758 c0.5475630283355716,0 1.0038655519485475,-0.3650420188903809 1.1863865613937379,-0.8213445425033575 l15.514285802841187,-46.17781538963318 c0.09126050472259539,-0.3650420188903809 0.09126050472259539,-0.8213445425033575 -0.1825210094451906,-1.0951260566711425 C253.5216831211335,19.89477719962599 253.15664110224316,19.712256190180824 252.70033857863018,19.712256190180824 zM268.5796664003617,19.712256190180824 h-9.399831986427309 c-0.7300840377807618,0 -1.2776470661163328,0.5475630283355716 -1.2776470661163328,1.2776470661163328 V67.0764581412077 c0,0.7300840377807618 0.5475630283355716,1.2776470661163328 1.2776470661163328,1.2776470661163328 h9.399831986427309 c0.7300840377807618,0 1.2776470661163328,-0.5475630283355716 1.2776470661163328,-1.2776470661163328 v-46.08655488491058 C269.857313466478,20.259819218516327 269.21848993341996,19.712256190180824 268.5796664003617,19.712256190180824 zM161.98739688437058,66.71141612231736 c0.5475630283355716,0.6388235330581675 0.09126050472259539,1.5514285802841188 -0.7300840377807618,1.5514285802841188 h-11.498823595046996 c-0.45630252361297646,0 -0.9126050472259521,-0.1825210094451906 -1.1863865613937379,-0.5475630283355716 l-1.9164705991744997,-2.3727731227874758 c-4.01546220779419,2.5552941322326657 -8.76100845336914,4.106722712516785 -13.780336213111877,4.106722712516785 c-14.054117727279664,0 -25.461680817604062,-11.407563090324402 -25.461680817604062,-25.461680817604062 s11.407563090324402,-25.461680817604062 25.461680817604062,-25.461680817604062 s25.461680817604062,11.407563090324402 25.461680817604062,25.461680817604062 c0,5.019327759742737 -1.4601680755615236,9.764874005317687 -4.01546220779419,13.780336213111877 L161.98739688437058,66.71141612231736 zM139.08101019899914,56.490239593386605 l-5.019327759742737,-6.11445381641388 c-0.5475630283355716,-0.6388235330581675 -0.09126050472259539,-1.642689085006714 0.7300840377807618,-1.642689085006714 h10.586218547821044 c0.5475630283355716,-1.4601680755615236 0.8213445425033575,-3.102857160568237 0.8213445425033575,-4.7455462455749515 c0,-7.574621891975403 -5.658151292800904,-14.145378232002258 -13.415294194221495,-14.145378232002258 s-13.415294194221495,6.570756340026856 -13.415294194221495,14.145378232002258 c0,7.574621891975403 5.658151292800904,14.054117727279664 13.415294194221495,14.054117727279664 C135.065547991205,58.13292867839334 137.1645395998246,57.4941051453352 139.08101019899914,56.490239593386605 zM78.30151405375068,66.52889511287208 c0.2737815141677858,1.9164705991744997 -0.3650420188903809,2.7378151416778564 -0.9126050472259521,2.7378151416778564 c-0.6388235330581675,0 -1.4601680755615236,-0.8213445425033575 -2.464033627510071,-2.2815126180648804 c-1.0038655519485475,-1.5514285802841188 -1.3689075708389282,-3.285378170013428 -0.8213445425033575,-4.106722712516785 c0.2737815141677858,-0.5475630283355716 1.0038655519485475,-0.8213445425033575 1.8252100944519043,-0.5475630283355716 C77.48016951124737,62.87847492396827 78.11899304430551,65.34250855147843 78.30151405375068,66.52889511287208 zM69.2667240862138,70.63561782538886 c1.9164705991744997,1.642689085006714 2.5552941322326657,3.6504201889038086 1.5514285802841188,5.019327759742737 c-0.5475630283355716,0.7300840377807618 -1.4601680755615236,1.1863865613937379 -2.646554636955261,1.1863865613937379 c-1.0951260566711425,0 -2.190252113342285,-0.3650420188903809 -3.0115966558456417,-1.0951260566711425 c-1.733949589729309,-1.5514285802841188 -2.2815126180648804,-4.106722712516785 -1.0951260566711425,-5.475630283355713 c0.45630252361297646,-0.5475630283355716 1.1863865613937379,-0.8213445425033575 2.0989916086196896,-0.8213445425033575 C67.16773247759409,69.44923126399522 68.2628585342652,69.90553378760819 69.2667240862138,70.63561782538886 zM65.98134591620033,86.60620615184303 c8.395966434478758,0 17.52201690673828,2.9203361511230472 27.65193293094635,11.863865613937378 c1.0038655519485475,0.9126050472259521 2.3727731227874758,-0.1825210094451906 1.4601680755615236,-1.3689075708389282 c-9.947395014762881,-12.502689146995543 -19.073445487022397,-14.875462269783021 -28.19949595928192,-16.883193373680115 c-11.225042080879213,-2.464033627510071 -16.974453878402713,-8.76100845336914 -20.9899160861969,-15.696806812286376 c-0.8213445425033575,-1.3689075708389282 -1.1863865613937379,-1.0951260566711425 -1.1863865613937379,0.6388235330581675 c-0.09126050472259539,2.190252113342285 0.09126050472259539,5.019327759742737 0.5475630283355716,7.848403406143188 l0,0 c-0.45630252361297646,0 -0.9126050472259521,0 -1.3689075708389282,0 c-15.970588326454163,0 -29.02084050178528,-12.958991670608519 -29.02084050178528,-29.02084050178528 c0,-15.970588326454163 12.958991670608519,-29.02084050178528 29.02084050178528,-29.02084050178528 s29.02084050178528,12.958991670608519 29.02084050178528,29.02084050178528 c0,1.0951260566711425 -0.09126050472259539,2.2815126180648804 -0.1825210094451906,3.3766386747360233 c-2.0989916086196896,-0.3650420188903809 -6.2969748258590705,-0.45630252361297646 -9.217310976982116,-0.1825210094451906 c-1.0951260566711425,0.09126050472259539 -0.9126050472259521,0.6388235330581675 -0.09126050472259539,0.7300840377807618 c9.582352995872498,1.733949589729309 16.15310933589935,7.665882396697999 17.70453791618347,18.434621953964232 c0,0.2737815141677858 0.3650420188903809,0.3650420188903809 0.45630252361297646,0.09126050472259539 c3.924201703071594,-6.570756340026856 6.205714321136474,-14.236638736724853 6.205714321136474,-22.541344666481017 c0,-24.184033751487732 -19.62100851535797,-43.8963027715683 -43.8963027715683,-43.8963027715683 s-43.8963027715683,19.62100851535797 -43.8963027715683,43.8963027715683 c0,24.184033751487732 19.62100851535797,43.8963027715683 43.8963027715683,43.8963027715683 C50.28453910391397,87.88385321795943 56.672774434495636,86.60620615184303 65.98134591620033,86.60620615184303 z" id="svg_2"/>
</g></g></svg>