<svg width="120.17266869544983" height="39.549338579177856" xmlns="http://www.w3.org/2000/svg">
 <g>
  <title>Layer 1</title>
  <g fill="#2566af" id="svg_1" stroke="null">
   <path d="m52.60167,38.90434l-9.733,0l6.083,-37.384l9.734,0l-6.084,37.384zm-17.921,-37.384l-9.279,25.713l-1.098,-5.537l0.001,0.002l-3.275,-16.812s-0.396,-3.366 -4.617,-3.366l-15.34,0l-0.18,0.633s4.691,0.976 10.181,4.273l8.456,32.479l10.141,0l15.485,-37.385l-10.475,0zm76.555,37.384l8.937,0l-7.792,-37.385l-7.824,0c-3.613,0 -4.493,2.786 -4.493,2.786l-14.516,34.599l10.146,0l2.029,-5.553l12.373,0l1.14,5.553zm-10.71,-13.224l5.114,-13.99l2.877,13.99l-7.991,0zm-14.217,-15.17l1.389,-8.028s-4.286,-1.63 -8.754,-1.63c-4.83,0 -16.3,2.111 -16.3,12.376c0,9.658 13.462,9.778 13.462,14.851s-12.075,4.164 -16.06,0.965l-1.447,8.394s4.346,2.111 10.986,2.111c6.642,0 16.662,-3.439 16.662,-12.799c0,-9.72 -13.583,-10.625 -13.583,-14.851c0.001,-4.227 9.48,-3.684 13.645,-1.389z" id="svg_2" stroke="null"/>
  </g>
  <path d="m24.30467,21.69734l-3.275,-16.812s-0.396,-3.366 -4.617,-3.366l-15.34,0l-0.18,0.633s7.373,1.528 14.445,7.253c6.762,5.472 8.967,12.292 8.967,12.292z" fill="#e6a540" id="svg_3" stroke="null"/>
 </g>

</svg>