<svg xmlns="http://www.w3.org/2000/svg" width="266" height="63" fill="none"><rect id="backgroundrect" width="100%" height="100%" x="0" y="0" fill="none" stroke="none"/>







<g class="currentLayer" style=""><title>Layer 1</title><path d="M138.76,17.337 H130.17 L124.091,28.02 H120.962 L120.862,4.90002 H112.73 V46.6555 H120.862 L120.962,35.1952 H124.071 L132.143,46.6555 H141.152 L130.628,31.4681 L138.76,17.337 z" fill="white" id="svg_1" class=""/><path d="M200.307,31.0894 C198.655,30.0203 196.864,29.1821 194.985,28.5981 L193.191,27.9204 L192.713,27.741 C191.597,27.3225 190.421,26.884 190.381,25.7479 C190.371,25.4114 190.445,25.0777 190.599,24.778 C190.752,24.4783 190.979,24.2222 191.258,24.0339 C191.847,23.628 192.537,23.3934 193.251,23.3562 C194.808,23.2487 196.352,23.7089 197.596,24.6517 L197.815,24.7913 L202.16,19.7886 L201.941,19.6092 C201.4,19.127 200.813,18.6997 200.187,18.3336 C199.066,17.6925 197.848,17.2413 196.58,16.9982 C194.753,16.6096 192.865,16.6096 191.039,16.9982 C189.273,17.2319 187.598,17.9186 186.176,18.9913 C185.266,19.7029 184.506,20.5866 183.938,21.592 C183.371,22.5975 183.007,23.7049 182.867,24.851 C182.618,26.9194 183.143,29.0068 184.342,30.7108 C185.934,32.4741 188.016,33.723 190.321,34.2983 L190.68,34.4179 L191.497,34.697 C194.447,35.6935 195.284,36.0921 195.762,36.6901 C195.985,36.9909 196.11,37.3525 196.121,37.7265 C196.121,39.1416 194.387,39.7196 193.211,40.0783 C192.389,40.2328 191.544,40.2169 190.728,40.0318 C189.912,39.8467 189.143,39.4962 188.468,39.0021 C187.375,38.2714 186.44,37.3294 185.717,36.231700000000004 C185.259,36.71 180.754,41.1546 180.834,41.2343 L180.974,41.4336 C183.144,44.151 186.185,46.0374 189.584,46.7752 C190.36,46.9253 191.146,47.0252 191.936,47.0741 H192.753 C195.438,47.1304 198.068,46.3119 200.247,44.7422 C201.721,43.6998 202.851,42.243 203.496,40.5567 C203.888,39.4247 204.026,38.2205 203.902,37.029 C203.778,35.8374 203.395,34.6876 202.778,33.6605 C202.148,32.6363 201.305,31.7595 200.307,31.0894 V31.0894 z" fill="white" id="svg_2" class=""/><path d="M226.576,31.0893 C224.931,30.0203 223.148,29.182 221.275,28.5979 L219.461,27.9203 L219.003,27.7409 C217.867,27.3223 216.711,26.8838 216.651,25.7478 C216.656,25.4119 216.74,25.082 216.896,24.7843 C217.052,24.4867 217.275,24.2296 217.548,24.0337 C218.137,23.6278 218.827,23.3933 219.541,23.3561 C221.098,23.2522 222.64,23.712 223.886,24.651600000000002 L224.085,24.7911 L228.43,19.7884 L228.231,19.609 C227.686,19.1221 227.092,18.6945 226.457,18.3335 C225.343,17.6931 224.131,17.2418 222.869,16.9981 C221.036,16.609 219.142,16.609 217.309,16.9981 C215.545,17.2387 213.871,17.9246 212.445,18.9912 C211.53,19.696 210.763,20.5748 210.188,21.577 C209.614,22.5792 209.243,23.685 209.097,24.831 C208.836,26.9001 209.362,28.9917 210.572,30.6907 C212.164,32.454 214.246,33.7029 216.551,34.2783 L216.89,34.3979 L217.707,34.6769 C220.677,35.6734 221.514,36.0721 221.992,36.67 C222.222,36.9657 222.342,37.3321 222.331,37.7064 C222.331,39.1215 220.617,39.6995 219.441,40.0583 C218.616,40.2131 217.767,40.1975 216.948,40.0125 C216.129,39.8274 215.356,39.4767 214.678,38.982 C213.594,38.2407 212.661,37.3006 211.927,36.2116 C211.489,36.6899 206.984,41.1345 207.044,41.2143 L207.203,41.4136 C209.374,44.1309 212.415,46.0173 215.814,46.7551 C216.59,46.9065 217.376,47.0064 218.166,47.054 H218.983 C221.668,47.1103 224.298,46.2918 226.477,44.7221 C227.951,43.6797 229.081,42.2229 229.726,40.5366 C230.117,39.4046 230.256,38.2004 230.132,37.0089 C230.008,35.8174 229.625,34.6676 229.008,33.6405 C228.386,32.6286 227.557,31.7593 226.576,31.0893 V31.0893 z" fill="white" id="svg_3" class=""/><path d="M165.467,17.337 V20.2071 H165.109 C162.883,17.9783 159.867,16.7178 156.718,16.6992 C154.787,16.6611 152.869,17.03 151.091,17.7821 C149.312,18.5341 147.711,19.6524 146.393,21.0641 C143.735,24.0406 142.31,27.9173 142.407,31.9066 C142.304,35.9629 143.726,39.9102 146.393,42.9683 C147.68,44.3809 149.255,45.5001 151.013,46.2498 C152.77,46.9995 154.668,47.3622 156.578,47.3132 C159.732,47.254 162.765,46.0902 165.148,44.0246 H165.467 V46.5957 H173.918 V17.337 H165.467 zM165.886,32.066 C165.971,34.4239 165.183,36.7302 163.673,38.5436 C162.95,39.3538 162.057,39.9951 161.058,40.4222 C160.06,40.8493 158.979,41.0517 157.894,41.0151 C156.841,41.0328 155.797,40.8125 154.841,40.3708 C153.885,39.9291 153.041,39.2772 152.373,38.4639 C150.881,36.6129 150.116,34.2815 150.22,31.9066 C150.152,29.6031 150.932,27.3549 152.412,25.5885 C153.094,24.7874 153.944,24.1469 154.902,23.7127 C155.86,23.2786 156.902,23.0615 157.953,23.0771 C159.032,23.0436 160.104,23.2496 161.093,23.6804 C162.082,24.1112 162.964,24.7561 163.673,25.5685 C165.183,27.3899 165.97,29.7022 165.886,32.066 z" fill="white" id="svg_4" class=""/><path d="M257.389,17.3371 V20.2071 H257.03 C254.809,17.9832 251.802,16.7231 248.659,16.6993 C246.726,16.6633 244.806,17.0332 243.024,17.785 C241.243,18.5368 239.638,19.6539 238.315,21.0642 C235.657,24.0407 234.232,27.9173 234.329,31.9067 C234.226,35.9629 235.648,39.9103 238.315,42.9684 C239.602,44.381 241.177,45.5002 242.934,46.2499 C244.692,46.9996 246.59,47.3623 248.5,47.3133 C251.654,47.2541 254.686,46.0903 257.07,44.0247 H257.389 V46.5958 H265.84 V17.3371 H257.389 zM257.808,32.0661 C257.902,34.4254 257.113,36.735 255.595,38.5437 C254.872,39.3539 253.979,39.9952 252.98,40.4223 C251.981,40.8494 250.901,41.0517 249.815,41.0151 C248.762,41.0328 247.719,40.8126 246.763,40.3709 C245.807,39.9291 244.963,39.2773 244.294,38.464 C242.803,36.613 242.037,34.2816 242.142,31.9067 C242.074,29.6032 242.854,27.355 244.334,25.5885 C245.016,24.7875 245.866,24.1469 246.824,23.7128 C247.782,23.2786 248.824,23.0616 249.875,23.0772 C250.954,23.0436 252.026,23.2497 253.015,23.6805 C254.004,24.1113 254.885,24.7562 255.595,25.5686 C257.113,27.3853 257.901,29.7009 257.808,32.0661 z" fill="white" id="svg_5" class=""/><path d="M57.2192,0 C39.6749,0 25.7192,14.155100000000001 25.7192,31.5 C25.7192,49.0443 39.8743,63 57.2192,63 C74.5642,63 88.7192,48.8449 88.7192,31.5 C88.7192,14.155100000000001 74.5642,0 57.2192,0 zM57.2192,43.0633 C50.8395,43.0633 45.4566,37.6804 45.4566,31.3006 C45.4566,24.9209 50.8395,19.538 57.2192,19.538 C63.599,19.538 68.9819,24.9209 68.9819,31.3006 C68.7825,37.8797 63.599,43.0633 57.2192,43.0633 z" fill="white" id="svg_6" class=""/><path d="M25.519,8.97156 V54.826 H14.3544 L0,8.97156 H25.519 z" fill="white" id="svg_7" class=""/></g></svg>